<svg xmlns="http://www.w3.org/2000/svg" width="1600" height="900" viewBox="0 0 1600 900" fill="none">
<defs><linearGradient id="bg" x2="1600" y2="900"><stop stop-color="#07111F"/><stop offset="1" stop-color="#040912"/></linearGradient><linearGradient id="card" x2="1" y2="1"><stop stop-color="#102034"/><stop offset="1" stop-color="#091322"/></linearGradient><linearGradient id="calcBody" x2="1" y2="1"><stop stop-color="#F5F7F8"/><stop offset=".5" stop-color="#D5DCE2"/><stop offset="1" stop-color="#EEF2F4"/></linearGradient><linearGradient id="keys" x2="1" y2="1"><stop stop-color="#25475E"/><stop offset="1" stop-color="#162E41"/></linearGradient><linearGradient id="cta"><stop stop-color="#2BDFD6"/><stop offset="1" stop-color="#1EA6C6"/></linearGradient><filter id="shadow"><feDropShadow dy="22" stdDeviation="29" flood-opacity=".35"/></filter></defs>
<rect width="1600" height="900" rx="32" fill="url(#bg)"/>
<text x="78" y="78" fill="#20D5CD" font-family="Arial" font-size="15" font-weight="700" letter-spacing="4">CALCULATOR LAB • DESIGN TARGET</text>
<text x="78" y="138" fill="#EFF6FF" font-family="Arial" font-size="47" font-weight="700">Learn the buttons from zero.</text>
<text x="78" y="176" fill="#9DB0CB" font-family="Arial" font-size="18">Write the setup. Press one highlighted key. Check the display. Repeat.</text>
<!-- left drill rail -->
<g filter="url(#shadow)"><rect x="78" y="230" width="382" height="582" rx="21" fill="url(#card)" stroke="#1A304A"/>
<text x="104" y="265" fill="#20D5CD" font-family="Arial" font-size="10" font-weight="700" letter-spacing="2">PRACTICE MODE</text><rect x="104" y="285" width="161" height="43" rx="10" fill="#20D5CD"/><text x="156" y="312" fill="#071721" font-family="Arial" font-size="13" font-weight="700">Guided</text><rect x="274" y="285" width="159" height="43" rx="10" fill="#111F35" stroke="#253C57"/><text x="316" y="312" fill="#B2C4DC" font-family="Arial" font-size="13">Free practice</text>
<text x="104" y="370" fill="#20D5CD" font-family="Arial" font-size="10" font-weight="700" letter-spacing="2">PICK A BUTTON PATH</text>
<rect x="104" y="393" width="329" height="62" rx="12" fill="#16303E" stroke="#20D5CD" stroke-opacity=".42"/><text x="122" y="416" fill="#20D5CD" font-family="Arial" font-size="10" font-weight="700">X² / SQUARE</text><text x="122" y="439" fill="#F1F6FF" font-family="Arial" font-size="15" font-weight="700">Little raised 2</text>
<text x="122" y="491" fill="#AABDD5" font-family="Arial" font-size="14">The result button</text><text x="122" y="532" fill="#AABDD5" font-family="Arial" font-size="14">Decimals for money</text><text x="122" y="573" fill="#AABDD5" font-family="Arial" font-size="14">Fractions using ÷</text><text x="122" y="614" fill="#AABDD5" font-family="Arial" font-size="14">Square root</text><text x="122" y="655" fill="#AABDD5" font-family="Arial" font-size="14">Formula sheet → calculator</text>
<rect x="104" y="692" width="329" height="93" rx="13" fill="#081422" stroke="#1F3852"/><text x="124" y="718" fill="#20D5CD" font-family="Arial" font-size="9" font-weight="700" letter-spacing="2">WRITE FIRST</text><text x="124" y="755" fill="#F1F6FF" font-family="Arial" font-size="27" font-weight="700">6² + 3²</text></g>
<!-- calculator -->
<g filter="url(#shadow)"><rect x="543" y="234" width="420" height="586" rx="25" fill="url(#calcBody)"/><rect x="573" y="258" width="360" height="56" rx="8" fill="#173345"/><text x="593" y="282" fill="#EEF5FF" font-family="Arial" font-size="11" font-weight="700" letter-spacing="2">SCIENTIFIC MULTI-LINE</text><text x="593" y="299" fill="#B8C6CF" font-family="Arial" font-size="10">TRAINING CALCULATOR</text>
<rect x="584" y="327" width="338" height="96" rx="5" fill="#C5D2B5" stroke="#273D49" stroke-width="4"/><text x="603" y="349" fill="#273129" font-family="monospace" font-size="11">Math</text><text x="603" y="382" fill="#19251F" font-family="monospace" font-size="22">6²+3²</text><text x="853" y="409" text-anchor="end" fill="#17241D" font-family="monospace" font-size="27" font-weight="700">45</text>
<rect x="576" y="442" width="344" height="348" rx="18" fill="url(#keys)"/>
<!-- function keys -->
<g font-family="Arial" font-weight="700" font-size="13" text-anchor="middle">
<rect x="594" y="463" width="68" height="40" rx="8" fill="#28B984"/><text x="628" y="488" fill="#082119">2nd</text><rect x="674" y="463" width="68" height="40" rx="8" fill="#405B6D"/><text x="708" y="488" fill="#EFF5FB">mode</text><rect x="754" y="463" width="68" height="40" rx="8" fill="#405B6D"/><text x="788" y="488" fill="#EFF5FB">del</text><rect x="834" y="463" width="68" height="40" rx="8" fill="#405B6D"/><text x="868" y="488" fill="#EFF5FB">clear</text>
<!-- rows -->
<rect x="594" y="518" width="68" height="38" rx="8" fill="#415D70"/><text x="628" y="542" fill="#EFF5FB">x²</text><rect x="674" y="518" width="68" height="38" rx="8" fill="#415D70"/><text x="708" y="542" fill="#EFF5FB">√</text><rect x="754" y="518" width="68" height="38" rx="8" fill="#415D70"/><text x="788" y="542" fill="#EFF5FB">π</text><rect x="834" y="518" width="68" height="38" rx="8" fill="#415D70"/><text x="868" y="542" fill="#EFF5FB">÷</text>
<g fill="#F3F5F4"><rect x="594" y="570" width="68" height="43" rx="8"/><rect x="674" y="570" width="68" height="43" rx="8"/><rect x="754" y="570" width="68" height="43" rx="8"/></g><text x="628" y="597" fill="#18232D" font-size="19">7</text><text x="708" y="597" fill="#18232D" font-size="19">8</text><text x="788" y="597" fill="#18232D" font-size="19">9</text><rect x="834" y="570" width="68" height="43" rx="8" fill="#415D70"/><text x="868" y="598" fill="#EFF5FB" font-size="19">×</text>
<g fill="#F3F5F4"><rect x="594" y="624" width="68" height="43" rx="8"/><rect x="674" y="624" width="68" height="43" rx="8"/><rect x="754" y="624" width="68" height="43" rx="8"/></g><text x="628" y="652" fill="#18232D" font-size="19">4</text><text x="708" y="652" fill="#18232D" font-size="19">5</text><text x="788" y="652" fill="#18232D" font-size="19">6</text><rect x="834" y="624" width="68" height="43" rx="8" fill="#415D70"/><text x="868" y="652" fill="#EFF5FB" font-size="19">−</text>
<g fill="#F3F5F4"><rect x="594" y="678" width="68" height="43" rx="8"/><rect x="674" y="678" width="68" height="43" rx="8"/><rect x="754" y="678" width="68" height="43" rx="8"/></g><text x="628" y="706" fill="#18232D" font-size="19">1</text><text x="708" y="706" fill="#18232D" font-size="19">2</text><text x="788" y="706" fill="#18232D" font-size="19">3</text><rect x="834" y="678" width="68" height="43" rx="8" fill="#415D70"/><text x="868" y="706" fill="#EFF5FB" font-size="19">+</text>
<g fill="#F3F5F4"><rect x="594" y="732" width="68" height="43" rx="8"/><rect x="674" y="732" width="68" height="43" rx="8"/><rect x="754" y="732" width="68" height="43" rx="8"/></g><text x="628" y="760" fill="#18232D" font-size="19">0</text><text x="708" y="760" fill="#18232D" font-size="19">.</text><text x="788" y="760" fill="#18232D" font-size="14">(−)</text><rect x="834" y="732" width="68" height="43" rx="8" fill="#D5E0DD"/><text x="868" y="758" fill="#172A37" font-size="13">enter</text></g></g>
<!-- right guidance -->
<rect x="1042" y="239" width="478" height="568" rx="21" fill="url(#card)" stroke="#1A304A"/>
<text x="1072" y="278" fill="#20D5CD" font-family="Arial" font-size="10" font-weight="700" letter-spacing="2">GUIDED STEP</text><text x="1072" y="322" fill="#F1F6FF" font-family="Arial" font-size="28" font-weight="700">Press the highlighted key.</text><text x="1072" y="354" fill="#9FB2CC" font-family="Arial" font-size="15">One button at a time. Wrong keys do not erase your work.</text>
<rect x="1072" y="397" width="414" height="103" rx="14" fill="#081423" stroke="#1E3953"/><text x="1094" y="425" fill="#20D5CD" font-family="Arial" font-size="10" font-weight="700" letter-spacing="2">CURRENT MOVE</text><text x="1094" y="465" fill="#F3F7FF" font-family="Arial" font-size="27" font-weight="700">Next key: x²</text>
<rect x="1072" y="521" width="414" height="88" rx="14" fill="#14313B" stroke="#20D5CD" stroke-opacity=".32"/><text x="1095" y="553" fill="#CAFAF5" font-family="Arial" font-size="14" font-weight="700">Sequence complete when display shows</text><text x="1095" y="587" fill="#F1F6FF" font-family="Arial" font-size="25" font-weight="700">45</text>
<text x="1072" y="663" fill="#F7C25A" font-family="Arial" font-size="10" font-weight="700" letter-spacing="2">WORK PAD AVAILABLE</text><text x="1072" y="695" fill="#A6B9D2" font-family="Arial" font-size="14">Write the setup beside the calculator before pressing keys.</text><rect x="1072" y="729" width="414" height="47" rx="11" fill="url(#cta)"/><text x="1231" y="758" fill="#061721" font-family="Arial" font-size="14" font-weight="700">Open Work Pad  →</text>
<text x="78" y="868" fill="#667B98" font-family="Arial" font-size="12" letter-spacing="2">DESIGN NORTH STAR • INTERACTIVE CALCULATOR LAB TARGET • NOT A CURRENT SCREENSHOT</text>
</svg>