<svg xmlns="http://www.w3.org/2000/svg" width="1600" height="900" viewBox="0 0 1600 900" fill="none">
<defs><linearGradient id="bg" x2="1600" y2="900"><stop stop-color="#07111F"/><stop offset="1" stop-color="#050B16"/></linearGradient><linearGradient id="cta" x2="1" y2="1"><stop stop-color="#25DDD4"/><stop offset="1" stop-color="#239DD8"/></linearGradient><linearGradient id="card" x2="1" y2="1"><stop stop-color="#102035"/><stop offset="1" stop-color="#0A1526"/></linearGradient><filter id="s"><feDropShadow dy="18" stdDeviation="26" flood-opacity=".28"/></filter></defs>
<rect width="1600" height="900" rx="32" fill="url(#bg)"/>
<text x="78" y="83" fill="#20D5CD" font-family="Arial" font-size="15" font-weight="700" letter-spacing="4">STEP • HOME DASHBOARD DESIGN TARGET</text>
<text x="78" y="145" fill="#EFF6FF" font-family="Arial" font-size="50" font-weight="700">Know what to do next.</text>
<text x="78" y="182" fill="#9CAFCB" font-family="Arial" font-size="18">A low-clutter command center built around the next usable move.</text>
<!-- shell -->
<g filter="url(#s)"><rect x="70" y="224" width="1460" height="616" rx="25" fill="#081322" stroke="#172B43"/>
<rect x="70" y="224" width="1460" height="70" rx="25" fill="#0B1628"/><path d="M70 294H1530" stroke="#172B43"/>
<!-- header -->
<path d="M104 266H114V255H125V244H136" stroke="#20D5CD" stroke-width="4" stroke-linecap="round"/><circle cx="114" cy="255" r="3" fill="#24A6FF"/><circle cx="125" cy="244" r="3" fill="#A968F5"/><circle cx="136" cy="233" r="3" fill="#F7C25A"/><text x="150" y="263" fill="#20D5CD" font-family="Arial" font-size="25" font-weight="700" letter-spacing="3">STEP</text><text x="250" y="263" fill="#8195B3" font-family="Arial" font-size="13">Math that meets your brain</text>
<rect x="1220" y="243" width="136" height="34" rx="10" fill="#111F35" stroke="#233A55"/><text x="1246" y="264" fill="#ACC0D9" font-family="Arial" font-size="12">Symbols: n ×</text><rect x="1370" y="243" width="126" height="34" rx="10" fill="#111F35" stroke="#233A55"/><text x="1392" y="264" fill="#ACC0D9" font-family="Arial" font-size="12">Focus settings</text>
<!-- sidebar -->
<rect x="89" y="316" width="220" height="500" rx="15" fill="#07111F" stroke="#13263E"/><text x="112" y="351" fill="#20D5CD" font-family="Arial" font-size="10" font-weight="700" letter-spacing="2">YOUR PATH</text>
<rect x="104" y="367" width="190" height="58" rx="12" fill="#10263B" stroke="#20D5CD" stroke-opacity=".38"/><rect x="104" y="367" width="4" height="58" rx="2" fill="#20D5CD"/><text x="124" y="392" fill="#EDF5FF" font-family="Arial" font-size="15" font-weight="700">Home</text><text x="124" y="410" fill="#8094B2" font-family="Arial" font-size="11">Continue where I stopped</text>
<text x="124" y="463" fill="#B4C4D8" font-family="Arial" font-size="14">Number Sense</text><text x="124" y="504" fill="#B4C4D8" font-family="Arial" font-size="14">Percents &amp; Money</text><text x="124" y="545" fill="#B4C4D8" font-family="Arial" font-size="14">Functions &amp; Lines</text><text x="112" y="601" fill="#20D5CD" font-family="Arial" font-size="10" font-weight="700" letter-spacing="2">TOOLS &amp; PLAN</text><text x="124" y="640" fill="#DCE7F8" font-family="Arial" font-size="14">Calculator Lab</text><text x="124" y="680" fill="#B4C4D8" font-family="Arial" font-size="14">GED Map</text><text x="124" y="720" fill="#B4C4D8" font-family="Arial" font-size="14">Insights</text>
<!-- main title -->
<text x="345" y="350" fill="#20D5CD" font-family="Arial" font-size="10" font-weight="700" letter-spacing="2">WELCOME BACK</text><text x="345" y="394" fill="#EFF6FF" font-family="Arial" font-size="36" font-weight="700">Math that explains itself.</text><text x="345" y="424" fill="#9AAFCB" font-family="Arial" font-size="15">Nothing reveals the answer until you ask for the next step.</text>
<!-- cards row -->
<rect x="345" y="454" width="508" height="186" rx="17" fill="url(#card)" stroke="#1E3A54"/><text x="369" y="486" fill="#20D5CD" font-family="Arial" font-size="10" font-weight="700" letter-spacing="2">CONTINUE LESSON</text><text x="369" y="530" fill="#F1F6FF" font-family="Arial" font-size="25" font-weight="700">Little raised numbers</text><text x="369" y="558" fill="#9DB1CB" font-family="Arial" font-size="14">Translate 6² before trying to solve it.</text><rect x="369" y="582" width="198" height="40" rx="10" fill="url(#cta)"/><text x="396" y="607" fill="#071721" font-family="Arial" font-size="13" font-weight="700">Continue lesson  →</text>
<rect x="872" y="454" width="212" height="186" rx="17" fill="url(#card)" stroke="#1E3A54"/><text x="895" y="486" fill="#20D5CD" font-family="Arial" font-size="10" font-weight="700" letter-spacing="2">PROGRESS</text><circle cx="978" cy="548" r="42" stroke="#233D52" stroke-width="10"/><path d="M978 506A42 42 0 0 1 1017 564" stroke="#20D5CD" stroke-width="10" stroke-linecap="round"/><text x="955" y="554" fill="#F0F6FF" font-family="Arial" font-size="18" font-weight="700">34%</text><text x="924" y="614" fill="#91A6C3" font-family="Arial" font-size="12">8 of 24 lessons</text>
<rect x="1102" y="454" width="394" height="186" rx="17" fill="url(#card)" stroke="#2B3256"/><text x="1126" y="486" fill="#A968F5" font-family="Arial" font-size="10" font-weight="700" letter-spacing="2">CONFIDENCE CHECK-IN</text><text x="1126" y="525" fill="#F1F6FF" font-family="Arial" font-size="20" font-weight="700">How does math feel today?</text><text x="1126" y="551" fill="#99AEC9" font-family="Arial" font-size="13">This changes what STEP suggests next.</text><rect x="1126" y="578" width="100" height="38" rx="9" fill="#14263E" stroke="#223A58"/><text x="1153" y="602" fill="#AFC1D7" font-family="Arial" font-size="12">Stuck</text><rect x="1237" y="578" width="104" height="38" rx="9" fill="#1B4150" stroke="#20D5CD"/><text x="1263" y="602" fill="#C7FBF6" font-family="Arial" font-size="12">Steady</text><rect x="1352" y="578" width="112" height="38" rx="9" fill="#14263E" stroke="#223A58"/><text x="1372" y="602" fill="#AFC1D7" font-family="Arial" font-size="12">Ready</text>
<!-- lower cards -->
<rect x="345" y="662" width="365" height="134" rx="17" fill="url(#card)" stroke="#1E3A54"/><text x="368" y="693" fill="#25A6FF" font-family="Arial" font-size="10" font-weight="700" letter-spacing="2">CALCULATOR LAB</text><text x="368" y="728" fill="#EDF5FF" font-family="Arial" font-size="19" font-weight="700">Learn the buttons from zero.</text><text x="368" y="755" fill="#93A8C4" font-family="Arial" font-size="12">Write it → press it → read it.</text>
<rect x="728" y="662" width="365" height="134" rx="17" fill="url(#card)" stroke="#1E3A54"/><text x="751" y="693" fill="#F7C25A" font-family="Arial" font-size="10" font-weight="700" letter-spacing="2">WHAT JAMMED ME UP</text><text x="751" y="728" fill="#EDF5FF" font-family="Arial" font-size="19" font-weight="700">Target word: distance</text><text x="751" y="755" fill="#93A8C4" font-family="Arial" font-size="12">Review one number-line skill.</text>
<rect x="1111" y="662" width="385" height="134" rx="17" fill="url(#card)" stroke="#1E3A54"/><text x="1134" y="693" fill="#20D5CD" font-family="Arial" font-size="10" font-weight="700" letter-spacing="2">TAKE 5</text><text x="1134" y="728" fill="#EDF5FF" font-family="Arial" font-size="19" font-weight="700">Pause is part of learning.</text><text x="1134" y="755" fill="#93A8C4" font-family="Arial" font-size="12">Three lessons complete this session.</text>
</g>
<text x="78" y="872" fill="#667B98" font-family="Arial" font-size="12" letter-spacing="2">DESIGN NORTH STAR • DASHBOARD TARGET • NOT A CURRENT SCREENSHOT</text>
</svg>